<svg id="logo" xmlns="http://www.w3.org/2000/svg" xmlns:xlink="http://www.w3.org/1999/xlink" width="762px"
    height="141px">
    <path fill-rule="evenodd" fill="rgb(255, 255, 255)"
        d="M734.650,58.317 L730.294,59.856 L761.446,140.730 L754.846,140.730 L724.618,62.095 C716.081,65.361 708.778,66.992 702.706,66.992 C696.370,66.992 690.209,65.221 684.226,61.675 L653.866,140.730 L647.266,140.730 L701.122,0.810 L707.590,0.810 L728.050,53.840 L732.934,52.021 C737.069,50.716 740.809,49.876 744.154,49.502 L744.946,55.938 C742.129,56.218 738.697,57.012 734.650,58.317 ZM704.290,9.345 L686.602,55.659 C691.705,58.831 697.073,60.416 702.706,60.416 C708.161,60.416 714.718,58.971 722.374,56.078 L704.290,9.345 ZM707.062,49.082 C707.062,47.683 706.600,46.472 705.676,45.444 C704.752,44.419 703.630,43.905 702.310,43.905 C703.630,43.905 704.752,43.416 705.676,42.436 C706.600,41.457 707.062,40.267 707.062,38.868 C707.062,40.267 707.545,41.457 708.514,42.436 C709.481,43.416 710.626,43.905 711.946,43.905 C710.626,43.905 709.481,44.419 708.514,45.444 C707.545,46.472 707.062,47.683 707.062,49.082 ZM627.730,37.539 C624.562,39.638 621.085,40.781 617.302,40.967 L617.302,28.374 C622.054,28.094 626.080,26.114 629.380,22.428 C632.680,18.744 634.330,14.336 634.330,9.205 C634.330,7.246 634.066,5.427 633.538,3.748 C636.529,7.760 638.026,12.471 638.026,17.880 C638.026,21.892 637.102,25.646 635.254,29.144 C633.406,32.642 630.898,35.440 627.730,37.539 ZM627.070,2.769 C626.893,2.769 626.761,2.723 626.674,2.629 C626.410,2.257 626.410,1.929 626.674,1.650 C626.761,1.464 626.893,1.394 627.070,1.440 C627.245,1.488 627.377,1.558 627.466,1.650 C627.817,1.929 627.817,2.257 627.466,2.629 C627.377,2.723 627.245,2.769 627.070,2.769 ZM621.922,23.337 L616.114,18.720 L610.306,23.337 L612.682,16.061 L606.742,11.584 L614.002,11.724 L616.114,4.308 L618.226,11.724 L625.486,11.584 L619.546,16.061 L621.922,23.337 ZM624.166,7.526 C623.813,7.526 623.506,7.386 623.242,7.106 C623.065,6.827 622.978,6.501 622.978,6.127 C622.978,5.755 623.065,5.427 623.242,5.148 C623.506,4.962 623.813,4.868 624.166,4.868 C624.517,4.868 624.826,4.962 625.090,5.148 C625.354,5.427 625.486,5.755 625.486,6.127 C625.486,6.501 625.354,6.827 625.090,7.106 C624.826,7.386 624.517,7.526 624.166,7.526 ZM621.130,3.468 C620.777,3.468 620.470,3.329 620.206,3.049 C619.942,2.863 619.810,2.583 619.810,2.209 C619.810,1.838 619.942,1.510 620.206,1.230 C620.470,0.950 620.777,0.810 621.130,0.810 C621.481,0.810 621.790,0.950 622.054,1.230 C622.229,1.418 622.318,1.719 622.318,2.139 C622.318,2.559 622.229,2.863 622.054,3.049 C621.790,3.329 621.481,3.468 621.130,3.468 ZM611.098,3.608 C610.745,3.608 610.438,3.468 610.174,3.189 C609.910,2.909 609.778,2.583 609.778,2.209 C609.778,1.838 609.910,1.558 610.174,1.370 C610.349,1.090 610.636,0.950 611.032,0.950 C611.428,0.950 611.713,1.090 611.890,1.370 C612.154,1.558 612.286,1.838 612.286,2.209 C612.286,2.583 612.154,2.909 611.890,3.189 C611.713,3.468 611.449,3.608 611.098,3.608 ZM606.610,6.827 C606.346,6.827 606.169,6.687 606.082,6.407 C605.993,6.127 605.993,5.895 606.082,5.707 C606.433,5.336 606.742,5.336 607.006,5.707 C607.357,5.987 607.357,6.315 607.006,6.687 L606.610,6.827 ZM602.122,4.168 C601.858,3.796 601.858,3.468 602.122,3.189 C602.473,3.003 602.782,3.003 603.046,3.189 C603.397,3.468 603.397,3.796 603.046,4.168 C602.782,4.448 602.473,4.448 602.122,4.168 ZM603.112,22.428 C606.412,26.114 610.481,28.094 615.322,28.374 L615.322,40.967 C611.537,40.781 608.039,39.638 604.828,37.539 C601.615,35.440 599.086,32.642 597.238,29.144 C595.390,25.646 594.466,21.892 594.466,17.880 C594.466,12.657 595.961,7.946 598.954,3.748 C598.426,5.427 598.162,7.246 598.162,9.205 C598.162,14.336 599.812,18.744 603.112,22.428 ZM480.550,99.873 C480.373,99.782 480.286,99.642 480.286,99.454 C480.109,98.988 480.286,98.662 480.814,98.474 C481.342,98.474 481.606,98.708 481.606,99.174 C481.693,99.548 481.518,99.827 481.078,100.013 C480.901,100.013 480.726,99.967 480.550,99.873 ZM483.850,96.375 C483.673,96.375 483.586,96.190 483.586,95.816 C483.762,95.630 483.937,95.630 484.114,95.816 C484.290,95.910 484.290,96.050 484.114,96.235 C484.114,96.329 484.026,96.375 483.850,96.375 ZM484.906,100.433 C485.521,100.433 485.874,100.713 485.962,101.273 C485.962,101.461 485.896,101.670 485.764,101.902 C485.632,102.136 485.434,102.252 485.170,102.252 C484.993,102.346 484.795,102.300 484.576,102.112 C484.356,101.926 484.246,101.740 484.246,101.552 L484.246,101.273 C484.246,100.901 484.465,100.621 484.906,100.433 ZM477.646,117.923 C476.677,118.575 475.357,119.088 473.686,119.462 C473.334,119.554 472.894,119.602 472.366,119.602 C470.518,119.602 468.846,118.902 467.350,117.503 L466.822,117.084 L467.218,116.524 C468.097,114.937 469.330,113.817 470.914,113.166 C472.498,112.512 474.610,111.952 477.250,111.487 C479.713,110.927 481.518,110.459 482.662,110.088 L484.510,109.528 L483.718,111.207 C482.221,114.097 480.198,116.336 477.646,117.923 ZM542.986,38.448 L549.190,38.448 L543.250,42.786 L545.626,50.062 L539.818,45.444 L534.010,50.062 L536.386,42.786 L530.446,38.448 L536.914,38.588 L536.914,7.386 L461.806,7.386 L461.806,14.242 C462.774,14.616 463.609,15.246 464.314,16.131 C465.018,17.019 465.370,17.974 465.370,18.1000 C465.370,20.027 465.018,20.958 464.314,21.798 C463.609,22.638 462.774,23.151 461.806,23.337 L461.806,29.773 L470.650,29.773 L460.750,43.346 L450.850,29.773 L459.694,29.773 L459.694,23.337 C458.725,23.151 457.890,22.638 457.186,21.798 C456.481,20.958 456.130,20.027 456.130,18.1000 C456.130,17.880 456.460,16.925 457.120,16.131 C457.780,15.340 458.638,14.802 459.694,14.522 L459.694,7.386 C454.501,7.574 449.662,8.600 445.174,10.464 C440.686,12.332 437.056,15.130 434.284,18.860 C431.512,22.592 430.126,27.163 430.126,32.572 C430.126,37.703 431.490,41.925 434.218,45.235 C436.945,48.547 440.334,51.205 444.382,53.210 C448.429,55.217 454.150,57.572 461.542,60.276 C470.166,63.448 477.139,66.432 482.464,69.231 C487.788,72.029 492.364,76.065 496.192,81.334 C500.020,86.605 501.934,93.391 501.934,101.692 C501.934,109.528 499.954,116.406 495.994,122.331 C492.034,128.253 486.886,132.825 480.550,136.043 C474.214,139.261 467.614,140.870 460.750,140.870 C453.006,140.870 445.855,138.957 439.300,135.133 C432.744,131.307 427.530,126.130 423.658,119.602 C419.787,113.072 417.850,105.936 417.850,98.194 L423.922,98.194 C423.922,103.140 424.912,107.849 426.892,112.326 C428.872,116.804 431.622,120.767 435.142,124.219 C436.902,123.006 439.498,121.607 442.930,120.022 L447.154,117.923 C446.362,115.125 445.966,112.558 445.966,110.227 C445.966,107.989 446.230,105.866 446.758,103.861 C447.286,101.856 448.033,99.642 449.002,97.215 C449.178,96.843 449.617,95.700 450.322,93.787 C451.026,91.876 451.510,89.893 451.774,87.840 L452.038,85.602 L453.490,87.281 C456.658,91.198 458.242,95.676 458.242,100.713 C458.242,101.461 458.154,102.580 457.978,104.071 C457.450,107.335 456.262,110.413 454.414,113.306 C458.022,110.599 460.882,106.729 462.994,101.692 L463.654,99.873 C462.949,98.474 462.598,96.983 462.598,95.396 C462.598,93.997 462.862,92.598 463.390,91.198 C463.918,89.799 464.710,87.934 465.766,85.602 C466.998,82.897 467.922,80.612 468.538,78.745 C469.153,76.881 469.330,74.968 469.066,73.009 C474.346,78.700 476.986,84.250 476.986,89.659 C476.986,92.458 476.281,94.954 474.874,97.145 C473.466,99.338 471.618,101.041 469.330,102.252 L468.670,104.211 C465.942,110.833 461.629,116.244 455.734,120.442 L449.926,123.800 C452.038,123.426 453.534,123.240 454.414,123.240 C458.374,123.240 462.378,124.965 466.426,128.417 C465.898,129.536 464.820,130.446 463.192,131.145 C461.563,131.845 459.694,132.195 457.582,132.195 C455.293,132.195 452.940,131.751 450.520,130.866 C448.099,129.978 445.834,128.603 443.722,126.738 L440.554,128.417 C446.713,132.427 453.445,134.434 460.750,134.434 C466.558,134.434 472.168,133.104 477.580,130.446 C482.992,127.787 487.392,123.961 490.780,118.972 C494.167,113.981 495.862,108.220 495.862,101.692 C495.862,94.790 494.256,89.148 491.044,84.762 C487.831,80.379 483.850,76.975 479.098,74.548 C474.346,72.123 467.833,69.419 459.562,66.432 C451.642,63.542 445.350,60.906 440.686,58.527 C436.021,56.148 432.061,52.838 428.806,48.593 C425.550,44.349 423.922,38.916 423.922,32.292 C423.922,26.230 425.484,20.843 428.608,16.131 C431.731,11.422 436.021,7.714 441.478,5.008 C446.934,2.303 453.181,0.950 460.222,0.950 L585.226,0.950 L585.226,7.386 L542.986,7.386 L542.986,38.448 ZM448.870,116.664 C450.982,114.985 452.742,112.652 454.150,109.668 C455.557,106.681 456.262,103.651 456.262,100.573 C456.262,96.935 455.293,93.625 453.358,90.639 C452.917,92.412 452.082,94.884 450.850,98.054 C449.794,100.761 449.046,102.952 448.606,104.631 C448.165,106.310 447.946,108.175 447.946,110.227 C447.946,112.278 448.254,114.425 448.870,116.664 ZM459.694,35.090 L459.694,32.012 L455.074,32.012 L460.750,39.848 L466.426,32.012 L461.806,32.012 L461.806,35.090 L459.694,35.090 ZM366.898,94.556 C366.018,94.556 365.248,94.207 364.588,93.507 C363.928,92.807 363.598,91.946 363.598,90.918 C363.598,89.893 363.928,89.054 364.588,88.400 C365.248,87.748 366.018,87.420 366.898,87.420 C367.866,87.420 368.680,87.770 369.340,88.470 C370.000,89.169 370.330,89.987 370.330,90.918 C370.330,91.852 370.000,92.692 369.340,93.437 C368.680,94.185 367.866,94.556 366.898,94.556 ZM368.350,90.918 C368.350,90.547 368.218,90.219 367.954,89.939 C367.690,89.659 367.338,89.519 366.898,89.519 C366.546,89.519 366.238,89.659 365.974,89.939 C365.710,90.219 365.578,90.547 365.578,90.918 C365.578,91.292 365.710,91.618 365.974,91.898 C366.238,92.178 366.546,92.318 366.898,92.318 C367.338,92.318 367.690,92.178 367.954,91.898 C368.218,91.618 368.350,91.292 368.350,90.918 ZM366.898,117.923 L359.902,105.190 L365.974,105.190 L365.974,97.914 L367.954,97.914 L367.954,105.190 L374.026,105.190 L366.898,117.923 ZM363.466,107.289 L366.898,113.586 L370.462,107.289 L363.466,107.289 ZM327.826,62.095 L327.562,62.095 C319.028,62.095 312.250,60.556 307.234,57.478 L309.478,51.881 C315.286,54.587 321.404,55.847 327.826,55.659 L327.826,0.810 L403.330,0.810 L403.330,7.246 L333.898,7.246 L333.898,54.959 C338.298,53.748 343.050,51.649 348.154,48.663 C352.378,46.052 356.316,44.185 359.968,43.066 C363.619,41.946 367.249,41.387 370.858,41.387 C375.522,41.387 381.109,42.414 387.622,44.465 L385.906,50.622 C382.650,49.690 379.855,48.991 377.524,48.523 C375.192,48.057 372.970,47.823 370.858,47.823 C369.538,47.823 368.569,47.871 367.954,47.963 L367.954,63.354 L371.518,59.297 L372.970,60.696 L367.954,66.432 L367.954,71.470 L371.518,67.552 L372.970,68.951 L367.954,74.688 L367.954,82.243 L372.310,82.243 L372.310,84.342 L361.618,84.342 L361.618,82.243 L365.974,82.243 L365.974,74.688 L360.826,68.951 L362.410,67.552 L365.974,71.610 L365.974,66.432 L360.826,60.696 L362.410,59.297 L365.974,63.354 L365.974,48.243 C361.662,48.897 356.689,50.901 351.058,54.259 C344.545,58.085 338.826,60.510 333.898,61.535 L333.898,134.294 L403.330,134.294 L403.330,140.730 L327.826,140.730 L327.826,62.095 ZM170.218,94.696 C169.338,94.696 168.568,94.347 167.908,93.647 C167.248,92.947 166.918,92.086 166.918,91.058 C166.918,90.033 167.248,89.194 167.908,88.540 C168.568,87.888 169.338,87.560 170.218,87.560 C171.186,87.560 172.000,87.910 172.660,88.610 C173.320,89.309 173.650,90.127 173.650,91.058 C173.650,91.992 173.320,92.831 172.660,93.577 C172.000,94.325 171.186,94.696 170.218,94.696 ZM170.218,89.659 C169.866,89.659 169.558,89.799 169.294,90.079 C169.030,90.359 168.898,90.687 168.898,91.058 C168.898,91.432 169.030,91.758 169.294,92.038 C169.558,92.318 169.866,92.458 170.218,92.458 C171.097,92.458 171.538,91.992 171.538,91.058 C171.538,90.127 171.097,89.659 170.218,89.659 ZM174.574,110.647 L176.950,117.923 L171.142,113.306 L165.334,117.923 L167.710,110.647 L161.770,106.170 L169.030,106.310 L171.142,98.894 L173.254,106.310 L180.514,106.170 L174.574,110.647 ZM276.346,140.730 C272.650,140.730 268.734,140.170 264.598,139.051 C261.253,138.117 258.415,137.442 256.084,137.022 C253.752,136.602 251.398,136.392 249.022,136.392 C244.621,136.392 238.594,137.512 230.938,139.751 L227.110,140.870 L227.110,7.386 L137.218,7.386 L137.218,55.099 C141.442,53.980 146.149,51.881 151.342,48.803 C155.653,46.192 159.613,44.325 163.222,43.206 C166.830,42.086 170.437,41.527 174.046,41.527 C178.710,41.527 184.297,42.554 190.810,44.605 L189.094,50.761 C182.758,48.897 177.786,47.963 174.178,47.963 C172.858,47.963 171.889,48.011 171.274,48.103 L171.274,63.494 L174.838,59.436 L176.290,60.836 L171.274,66.572 L171.274,71.610 L174.838,67.692 L176.290,69.091 L171.274,74.828 L171.274,82.383 L175.630,82.383 L175.630,84.482 L164.938,84.482 L164.938,82.383 L169.294,82.383 L169.294,74.828 L164.146,69.091 L165.598,67.692 L169.294,71.749 L169.294,66.572 L164.146,60.836 L165.598,59.436 L169.294,63.494 L169.294,48.383 C164.982,49.036 160.009,51.041 154.378,54.399 C147.865,58.225 142.146,60.650 137.218,61.675 L137.218,134.434 L206.650,134.434 L206.650,140.870 L131.146,140.870 L131.146,62.235 L130.882,62.235 C126.044,62.235 120.632,60.976 114.646,58.457 L116.890,52.440 C122.434,54.773 127.186,55.893 131.146,55.799 L131.146,0.950 L233.314,0.950 L233.314,7.386 L233.182,7.386 L233.182,132.475 C239.694,130.796 245.062,129.956 249.286,129.956 C253.950,129.956 259.582,130.888 266.182,132.755 C269.526,133.686 273.001,134.154 276.610,134.154 C284.706,134.154 290.734,131.541 294.694,126.318 L299.446,130.376 C296.806,133.734 293.506,136.298 289.546,138.072 C285.586,139.842 281.185,140.730 276.346,140.730 ZM271.858,106.310 C269.130,106.310 266.533,105.750 264.070,104.631 C261.606,103.511 259.494,101.832 257.734,99.594 C255.094,96.235 253.774,92.226 253.774,87.560 C253.774,84.110 254.544,80.704 256.084,77.346 C257.623,73.988 259.801,71.050 262.618,68.531 C264.025,67.412 265.081,66.620 265.786,66.153 C263.850,68.485 262.354,71.074 261.298,73.918 C260.242,76.765 259.714,79.585 259.714,82.383 C259.714,86.955 261.034,90.918 263.674,94.277 C265.345,96.423 267.436,98.078 269.944,99.244 C272.452,100.411 275.113,100.993 277.930,100.993 C282.330,100.993 286.422,99.733 290.206,97.215 L287.434,100.013 C282.682,104.211 277.489,106.310 271.858,106.310 ZM281.230,74.268 C280.878,74.082 280.702,73.778 280.702,73.359 C280.702,72.939 280.789,72.543 280.966,72.169 C281.230,71.889 281.560,71.728 281.956,71.679 C282.352,71.634 282.682,71.749 282.946,72.029 C283.297,72.217 283.495,72.519 283.540,72.939 C283.584,73.359 283.474,73.756 283.210,74.128 C282.594,74.782 281.934,74.828 281.230,74.268 ZM278.326,89.869 C277.974,89.917 277.621,89.799 277.270,89.519 C276.654,88.868 276.565,88.168 277.006,87.420 C277.357,87.049 277.753,86.861 278.194,86.861 C278.809,86.861 279.228,87.165 279.448,87.770 C279.667,88.378 279.601,88.868 279.250,89.239 C278.986,89.613 278.677,89.823 278.326,89.869 ZM270.142,82.243 C269.790,82.243 269.569,82.082 269.482,81.754 C269.394,81.428 269.437,81.124 269.614,80.844 C269.965,80.473 270.361,80.424 270.802,80.704 C271.153,81.078 271.198,81.498 270.934,81.964 C270.582,82.152 270.318,82.243 270.142,82.243 ZM40.462,38.169 C41.077,38.169 41.605,38.542 42.046,39.288 C42.133,39.476 42.178,39.756 42.178,40.128 C42.178,40.875 41.869,41.481 41.254,41.946 C41.077,42.040 40.813,42.086 40.462,42.086 C40.110,42.086 39.757,41.995 39.406,41.807 C39.054,41.621 38.833,41.387 38.746,41.107 C38.569,40.735 38.482,40.407 38.482,40.128 C38.482,39.288 38.833,38.728 39.538,38.448 C39.889,38.263 40.198,38.169 40.462,38.169 ZM32.938,52.440 C33.466,52.440 33.817,52.674 33.994,53.140 C34.081,53.328 34.126,53.560 34.126,53.840 C34.126,54.308 33.906,54.679 33.466,54.959 C33.378,55.053 33.202,55.099 32.938,55.099 C32.410,55.099 32.014,54.867 31.750,54.399 C31.662,54.308 31.618,54.120 31.618,53.840 C31.618,53.188 31.837,52.768 32.278,52.580 C32.454,52.489 32.674,52.440 32.938,52.440 ZM29.242,45.584 L28.582,48.663 L27.526,45.724 L24.754,46.704 L26.470,44.325 L24.358,42.226 L27.262,42.646 L27.790,39.568 L28.978,42.506 L31.750,41.527 L29.902,43.905 L32.146,46.004 L29.242,45.584 ZM66.334,140.730 C54.366,140.730 43.344,137.582 33.268,131.285 C23.191,124.989 15.184,116.500 9.244,105.820 C3.304,95.140 0.334,83.457 0.334,70.770 C0.334,58.085 3.304,46.402 9.244,35.720 C15.184,25.040 23.191,16.551 33.268,10.255 C43.344,3.958 54.366,0.810 66.334,0.810 C72.934,0.810 79.380,1.813 85.672,3.818 C91.963,5.825 97.794,8.785 103.162,12.703 L99.730,18.020 C89.610,10.838 78.478,7.246 66.334,7.246 L62.638,7.386 L62.638,25.716 C63.606,26.184 64.090,26.975 64.090,28.094 C64.090,29.214 63.606,30.053 62.638,30.613 L62.638,46.564 C64.750,45.912 67.081,45.584 69.634,45.584 C72.889,45.584 76.146,46.238 79.402,47.543 C86.881,42.506 92.646,39.988 96.694,39.988 C98.542,39.988 100.038,40.595 101.182,41.807 C102.150,42.834 102.634,44.325 102.634,46.284 C102.634,50.949 100.126,57.058 95.110,64.614 C96.253,67.880 96.826,71.284 96.826,74.828 C96.738,78.745 95.989,82.453 94.582,85.951 C93.174,89.449 91.150,92.506 88.510,95.116 C85.870,97.823 82.921,99.873 79.666,101.273 C76.410,102.672 73.021,103.371 69.502,103.371 C66.070,103.371 62.770,102.672 59.602,101.273 C52.474,106.310 46.710,108.828 42.310,108.828 C40.374,108.828 38.878,108.269 37.822,107.149 C36.853,105.936 36.370,104.445 36.370,102.672 C36.370,98.008 38.878,91.852 43.894,84.202 C42.838,80.938 42.310,77.534 42.310,73.988 C42.397,70.164 43.146,66.502 44.554,63.004 C45.961,59.506 47.941,56.406 50.494,53.700 C53.662,50.622 57.006,48.477 60.526,47.263 L60.526,30.613 C59.557,30.147 59.074,29.308 59.074,28.094 C59.074,26.975 59.557,26.184 60.526,25.716 L60.526,7.526 C50.494,8.554 41.364,12.004 33.136,17.880 C24.907,23.757 18.396,31.337 13.600,40.617 C8.803,49.900 6.406,59.950 6.406,70.770 C6.406,82.243 9.090,92.855 14.458,102.602 C19.825,112.348 27.108,120.068 36.304,125.759 C45.499,131.447 55.510,134.294 66.334,134.294 C73.549,134.294 80.545,132.964 87.322,130.306 C94.098,127.647 100.170,123.800 105.538,118.763 L109.498,123.660 C103.513,129.163 96.804,133.384 89.368,136.323 C81.931,139.261 74.254,140.730 66.334,140.730 ZM100.654,46.284 C100.654,43.580 99.289,42.226 96.562,42.226 C93.130,42.226 88.158,44.373 81.646,48.663 C84.726,50.250 87.190,52.115 89.038,54.259 C91.150,56.498 92.866,59.157 94.186,62.235 C98.497,55.333 100.654,50.016 100.654,46.284 ZM38.350,102.672 C38.350,103.791 38.658,104.771 39.274,105.610 C39.978,106.356 40.990,106.729 42.310,106.729 C45.742,106.729 50.758,104.585 57.358,100.293 C54.718,98.894 52.254,96.983 49.966,94.556 C47.854,92.226 46.138,89.567 44.818,86.581 C40.506,93.577 38.350,98.942 38.350,102.672 ZM53.530,53.840 L69.238,70.630 L67.786,72.169 L51.946,55.239 C50.362,56.918 49.042,58.737 47.986,60.696 L54.322,67.412 L53.002,68.951 L46.930,62.655 C45.874,64.987 45.126,67.412 44.686,69.930 L54.322,80.005 L52.870,81.544 L44.422,72.589 L44.290,74.128 C44.290,77.674 44.905,81.078 46.138,84.342 C47.370,87.608 49.129,90.547 51.418,93.157 C53.970,95.864 57.006,97.963 60.526,99.454 C67.038,94.696 72.934,89.519 78.214,83.922 C84.286,77.766 89.302,71.658 93.262,65.593 C92.029,61.769 90.138,58.505 87.586,55.799 C85.210,53.188 82.438,51.181 79.270,49.782 C76.102,48.383 72.846,47.683 69.502,47.683 C63.517,47.683 58.194,49.736 53.530,53.840 ZM57.622,73.988 L59.074,72.449 L64.222,77.906 L62.770,79.305 L57.622,73.988 ZM521.998,36.070 C521.998,41.201 523.626,45.608 526.882,49.292 C530.137,52.978 534.186,54.959 539.026,55.239 L539.026,67.692 C535.242,67.506 531.744,66.363 528.532,64.264 C525.319,62.165 522.790,59.391 520.942,55.938 C519.094,52.489 518.170,48.711 518.170,44.605 C518.170,39.382 519.666,34.719 522.658,30.613 C522.217,32.480 521.998,34.299 521.998,36.070 ZM539.818,70.350 C540.697,70.350 541.446,70.678 542.062,71.330 C542.677,71.983 542.986,72.777 542.986,73.708 C542.986,74.642 542.677,75.435 542.062,76.087 C541.534,76.741 540.786,77.066 539.818,77.066 C538.938,77.066 538.189,76.741 537.574,76.087 C536.958,75.435 536.650,74.642 536.650,73.708 C536.650,72.777 536.958,71.983 537.574,71.330 C538.189,70.678 538.938,70.350 539.818,70.350 ZM542.986,140.870 L536.914,140.870 L536.914,79.585 L542.986,79.585 L542.986,140.870 ZM541.006,55.239 C545.758,54.959 549.784,52.978 553.084,49.292 C556.384,45.608 558.034,41.201 558.034,36.070 C558.034,34.111 557.770,32.292 557.242,30.613 C560.322,34.625 561.862,39.288 561.862,44.605 C561.862,48.711 560.938,52.489 559.090,55.938 C557.242,59.391 554.712,62.165 551.500,64.264 C548.287,66.363 544.789,67.506 541.006,67.692 L541.006,55.239 ZM616.114,43.486 C616.993,43.486 617.741,43.814 618.358,44.465 C618.973,45.119 619.282,45.912 619.282,46.844 C619.282,47.871 618.973,48.711 618.358,49.362 C617.566,50.016 616.817,50.342 616.114,50.342 C615.409,50.342 614.662,50.016 613.870,49.362 C613.253,48.711 612.946,47.871 612.946,46.844 C612.946,45.912 613.253,45.119 613.870,44.465 C614.485,43.814 615.233,43.486 616.114,43.486 ZM619.282,140.730 L613.210,140.730 L613.210,53.000 L619.282,53.000 L619.282,140.730 ZM679.144,130.166 C680.068,129.187 680.530,127.949 680.530,126.458 C680.530,127.949 680.992,129.187 681.916,130.166 C682.840,131.145 683.962,131.635 685.282,131.635 C683.962,131.635 682.840,132.125 681.916,133.104 C680.992,134.084 680.530,135.273 680.530,136.672 C680.530,135.273 680.068,134.084 679.144,133.104 C678.220,132.125 677.098,131.635 675.778,131.635 C677.098,131.635 678.220,131.145 679.144,130.166 ZM684.292,119.602 C683.983,119.322 683.830,118.948 683.830,118.483 C683.830,118.015 683.962,117.643 684.226,117.363 C684.490,117.084 684.841,116.944 685.282,116.944 C685.721,116.944 686.074,117.084 686.338,117.363 C686.602,117.643 686.734,118.015 686.734,118.483 C686.734,118.948 686.602,119.322 686.338,119.602 C686.074,119.882 685.721,120.022 685.282,120.022 C684.929,120.022 684.599,119.882 684.292,119.602 ZM692.014,124.639 C692.453,124.639 692.674,124.871 692.674,125.339 C692.674,125.898 692.453,126.178 692.014,126.178 C691.573,126.178 691.354,125.898 691.354,125.339 C691.354,124.871 691.573,124.639 692.014,124.639 ZM694.786,93.927 C696.634,90.617 699.119,87.980 702.244,86.021 C705.367,84.062 708.733,83.083 712.342,83.083 C715.069,83.083 717.797,83.691 720.526,84.902 C716.302,86.021 712.804,88.470 710.032,92.248 C707.260,96.026 705.874,100.341 705.874,105.190 C705.874,109.854 707.171,114.005 709.768,117.643 C712.363,121.281 715.685,123.752 719.734,125.059 C717.358,125.990 715.069,126.458 712.870,126.458 C709.085,126.458 705.587,125.501 702.376,123.590 C699.163,121.677 696.634,119.064 694.786,115.754 C692.938,112.442 692.014,108.828 692.014,104.910 C692.014,100.901 692.938,97.239 694.786,93.927 ZM720.526,108.968 C720.965,108.968 721.186,109.248 721.186,109.808 C721.186,109.994 721.120,110.157 720.988,110.297 C720.856,110.437 720.701,110.507 720.526,110.507 C720.349,110.507 720.196,110.437 720.064,110.297 C719.932,110.157 719.866,109.994 719.866,109.808 C719.866,109.248 720.085,108.968 720.526,108.968 ZM720.526,102.112 C720.173,102.112 719.843,101.950 719.536,101.622 C719.227,101.297 719.074,100.947 719.074,100.573 C719.074,100.107 719.227,99.733 719.536,99.454 C719.843,99.174 720.173,99.034 720.526,99.034 C720.965,99.034 721.318,99.174 721.582,99.454 C721.846,99.733 721.978,100.107 721.978,100.573 C721.978,100.947 721.846,101.297 721.582,101.622 C721.318,101.950 720.965,102.112 720.526,102.112 ZM729.766,101.412 C730.206,101.412 730.426,101.646 730.426,102.112 C730.426,102.672 730.206,102.952 729.766,102.952 C729.325,102.952 729.106,102.672 729.106,102.112 C729.106,101.646 729.325,101.412 729.766,101.412 Z" />
</svg>